<?xml version="1.0" standalone="no"?>
<!DOCTYPE svg PUBLIC "-//W3C//DTD SVG 20010904//EN"
 "http://www.w3.org/TR/2001/REC-SVG-20010904/DTD/svg10.dtd">
<svg version="1.0" xmlns="http://www.w3.org/2000/svg"
 width="128.000000pt" height="128.000000pt" viewBox="0 0 128.000000 128.000000"
 preserveAspectRatio="xMidYMid meet">
<metadata>
Created by potrace 1.11, written by Peter Selinger 2001-2013
</metadata>
<g transform="translate(0.000000,128.000000) scale(0.100000,-0.100000)"
fill="#000000" stroke="none">
<path d="M250 615 l0 -205 28 0 c15 0 58 -3 96 -7 67 -6 68 -6 57 15 -18 34
-13 73 19 137 16 33 30 65 30 72 0 7 18 -7 40 -30 l39 -42 17 24 c18 25 111
121 118 121 2 0 6 -14 10 -31 3 -18 16 -47 27 -66 l22 -34 32 31 32 31 32 -66
c32 -70 40 -132 19 -153 -14 -14 10 -15 125 -6 l77 7 0 203 0 204 -410 0 -410
0 0 -205z"/>
<path d="M652 578 c-22 -27 -52 -103 -52 -135 l0 -33 60 0 c56 0 60 2 60 23 0
32 -26 118 -43 141 -11 15 -15 16 -25 4z"/>
<path d="M485 516 c-9 -22 -19 -55 -22 -73 l-6 -33 47 0 c45 0 46 1 46 33 0
17 -11 50 -24 72 l-25 40 -16 -39z"/>
<path d="M793 538 c-22 -27 -43 -78 -43 -103 0 -23 3 -25 45 -25 43 0 45 1 44
28 0 15 -8 46 -18 70 -13 34 -20 41 -28 30z"/>
</g>
</svg>
